<?xml version="1.0" encoding="utf-8"?>
<!-- Generator: Adobe Illustrator 23.0.3, SVG Export Plug-In . SVG Version: 6.00 Build 0)  -->
<svg version="1.1" id="Layer_1" xmlns="http://www.w3.org/2000/svg" xmlns:xlink="http://www.w3.org/1999/xlink" x="0px" y="0px"
	 width="24px" height="24px" viewBox="0 0 24 24" style="enable-background:new 0 0 24 24;" xml:space="preserve">
<style type="text/css">
	.st0{fill:#F08220;}
</style>
<path class="st0" d="M21.7,20.3L18,16.6c3.1-3.9,2.5-9.5-1.4-12.7S7.1,1.5,4,5.3S1.5,14.9,5.3,18c3.3,2.6,8,2.6,11.3,0l3.7,3.7
	c0.4,0.4,1,0.4,1.4,0c0,0,0,0,0,0C22.1,21.3,22.1,20.7,21.7,20.3z M11,18c-3.9,0-7-3.1-7-7s3.1-7,7-7s7,3.1,7,7S14.9,18,11,18z"/>
</svg>
