<?xml version="1.0" encoding="utf-8"?>
<!-- Generator: Adobe Illustrator 23.0.3, SVG Export Plug-In . SVG Version: 6.00 Build 0)  -->
<svg version="1.1" id="Layer_1" xmlns="http://www.w3.org/2000/svg" xmlns:xlink="http://www.w3.org/1999/xlink" x="0px" y="0px"
	 width="20px" height="20px" viewBox="0 0 20 20" style="enable-background:new 0 0 20 20;" xml:space="preserve">
<style type="text/css">
	.st0{fill:none;stroke:#525252;stroke-width:2;stroke-linejoin:round;stroke-miterlimit:10;}
	.st1{fill:none;stroke:#525252;stroke-width:2;stroke-linecap:round;stroke-linejoin:round;stroke-miterlimit:10;}
</style>
<g>
	<path class="st0" d="M17.4,18v-3c0-1.7-2.3-2.8-4.5-3.3l-0.7,1.6L10,14.5H10l-2.1-1.2l-0.7-1.6c-2.2,0.5-4.5,1.6-4.5,3.3v3"/>
	<line class="st0" x1="10" y1="14.3" x2="10" y2="18"/>
	<path class="st1" d="M6.6,6"/>
	<path class="st1" d="M7.3,6.1c0,1.2,1.2,2.7,2.7,2.7h0h0h0c1.5,0,2.7-1.5,2.7-2.7l0.1-2.3c0-0.5-1.5-1.8-2.8-1.8
		C8.7,1.9,7.2,3.2,7.2,3.8L7.3,6.1z"/>
	<path class="st1" d="M6.4,6.9"/>
</g>
</svg>
