<?xml version="1.0" encoding="utf-8"?>
<!-- Generator: Adobe Illustrator 23.0.3, SVG Export Plug-In . SVG Version: 6.00 Build 0)  -->
<svg version="1.1" id="Layer_1" xmlns="http://www.w3.org/2000/svg" xmlns:xlink="http://www.w3.org/1999/xlink" x="0px" y="0px"
	 width="24px" height="24px" viewBox="0 0 24 24" style="enable-background:new 0 0 24 24;" xml:space="preserve">
<style type="text/css">
	.st0{fill:#FFFFFF;}
</style>
<path class="st0" d="M20.4,13.3L6.7,5.4c-0.4-0.3-1-0.1-1.3,0.3C5.2,6.2,5.3,6.7,5.8,7l10.7,6.2H4.1c-0.5,0-0.9,0.4-0.9,0.9v3.7
	c0,1.5,1.2,2.8,2.8,2.8h12.1c1.5,0,2.8-1.2,2.8-2.8v-3.7L20.4,13.3z M19,17.8c0,0.5-0.4,0.9-0.9,0.9H6c-0.5,0-0.9-0.4-0.9-0.9V15h14
	L19,17.8z"/>
<path class="st0" d="M7,17.8c0.5,0,0.9-0.4,0.9-0.9S7.5,16,7,16s-0.9,0.4-0.9,0.9S6.5,17.8,7,17.8L7,17.8L7,17.8z"/>
<g>
	<path class="st0" d="M15.7,1.6c-0.2,0-0.4,0-0.6,0c-0.5,0-0.8,0.5-0.8,0.9s0.5,0.8,0.9,0.8h0.5c2.8,0,5.1,2.3,5.1,5.1
		c0,0.2,0,0.3,0,0.5c0,0.5,0.3,0.9,0.8,0.9h0.1c0.4,0,0.8-0.3,0.9-0.8c0-0.2,0-0.4,0-0.6C22.6,4.7,19.5,1.6,15.7,1.6z"/>
	<path class="st0" d="M16.8,9c0,0.5,0.4,0.9,0.9,0.9s0.9-0.4,0.9-0.9c0-1.9-1.5-3.4-3.4-3.4c-0.5,0-0.9,0.4-0.9,0.9s0.4,0.9,0.9,0.9
		C16.1,7.3,16.8,8.1,16.8,9z"/>
</g>
</svg>
