<?xml version="1.0" encoding="utf-8"?>
<!-- Generator: Adobe Illustrator 23.0.3, SVG Export Plug-In . SVG Version: 6.00 Build 0)  -->
<svg version="1.1" id="Layer_1" xmlns="http://www.w3.org/2000/svg" xmlns:xlink="http://www.w3.org/1999/xlink" x="0px" y="0px"
	 width="24px" height="24px" viewBox="0 0 24 24" style="enable-background:new 0 0 24 24;" xml:space="preserve">
<style type="text/css">
	.st0{fill:#1DA1F2;}
</style>
<path class="st0" d="M8,20.8c8.2,0,12.7-6.8,12.7-12.7c0-0.2,0-0.4,0-0.6c0.9-0.6,1.6-1.4,2.2-2.3c-0.8,0.4-1.7,0.6-2.6,0.7
	c0.9-0.6,1.6-1.4,2-2.5c-0.9,0.5-1.8,0.9-2.8,1.1c-0.8-0.9-2-1.4-3.3-1.4c-2.5,0-4.5,2-4.5,4.5c0,0.4,0,0.7,0.1,1
	c-3.7-0.2-7-2-9.2-4.7C2.2,4.6,2,5.4,2,6.2c0,1.5,0.8,2.9,2,3.7c-0.7,0-1.4-0.2-2-0.6c0,0,0,0,0,0.1c0,2.2,1.5,4,3.6,4.4
	C5.2,13.9,4.8,14,4.4,14c-0.3,0-0.6,0-0.8-0.1C4.1,15.7,5.8,17,7.7,17c-1.5,1.2-3.5,1.9-5.5,1.9c-0.4,0-0.7,0-1.1-0.1
	C3.1,20.1,5.4,20.8,8,20.8"/>
</svg>
