<?xml version="1.0" encoding="utf-8"?>
<!-- Generator: Adobe Illustrator 23.0.3, SVG Export Plug-In . SVG Version: 6.00 Build 0)  -->
<svg version="1.1" id="Layer_1" xmlns="http://www.w3.org/2000/svg" xmlns:xlink="http://www.w3.org/1999/xlink" x="0px" y="0px"
	 width="24px" height="24px" viewBox="0 0 24 24" style="enable-background:new 0 0 24 24;" xml:space="preserve">
<style type="text/css">
	.st0{fill:#F08220;}
	.st1{fill:none;stroke:#FFFFFF;stroke-width:2;stroke-linecap:round;stroke-linejoin:round;stroke-miterlimit:10;}
</style>
<rect class="st0" width="24" height="24"/>
<path class="st1" d="M18.6,14l0.8,0.8l-1.2,2.1L17,16.7c-1.4-0.3-2.9,0.5-3.3,2l-0.4,1.1h-2.5l-0.4-1.1c-0.5-1.4-1.9-2.2-3.3-2
	L6,16.9l-1.3-2.1L5.4,14c1-1.1,1-2.8,0-3.9L4.7,9.3L6,7.1l1.1,0.2c1.4,0.3,2.9-0.5,3.3-2l0.4-1.1h2.5l0.4,1.1c0.5,1.4,1.9,2.2,3.3,2
	l1.1-0.3l1.2,2.1L18.6,10C17.6,11.2,17.6,12.8,18.6,14z M12,14.3c-1.3,0-2.3-1-2.3-2.3s1-2.3,2.3-2.3s2.3,1,2.3,2.3
	S13.3,14.3,12,14.3z"/>
</svg>
