<?xml version="1.0" encoding="utf-8"?>
<!-- Generator: Adobe Illustrator 23.0.3, SVG Export Plug-In . SVG Version: 6.00 Build 0)  -->
<svg version="1.1" id="LINE_LOGO" xmlns="http://www.w3.org/2000/svg" xmlns:xlink="http://www.w3.org/1999/xlink" x="0px" y="0px"
	 width="24px" height="24px" viewBox="0 0 24 24" style="enable-background:new 0 0 24 24;" xml:space="preserve">
<style type="text/css">
	.st0{fill:#DC5246;}
	.st1{fill:#FFFFFF;}
</style>
<g>
	<circle class="st0" cx="12" cy="12" r="10.8"/>
	<path class="st1" d="M13.7,11.2H12l0,0c0,0,0,0,0,0h-3v1.9h2.7c0,0.3-0.1,0.6-0.3,0.8c-0.6,0.7-1.4,1.1-2.4,1.1
		c-1.7,0-3.1-1.4-3.1-3.1c0-1.7,1.4-3.1,3.1-3.1c0.8,0,1.5,0.3,2,0.7l1.3-1.4c-0.9-0.8-2.1-1.3-3.4-1.3c-2.8,0-5.1,2.3-5.1,5.1
		s2.3,5.1,5.1,5.1c1,0,1.9-0.3,2.7-0.8c1.4-0.9,2.2-2.5,2.2-4.3C13.8,11.7,13.8,11.5,13.7,11.2z"/>
	<polygon class="st1" points="20.2,11.1 18.2,11.1 18.2,9 16.8,9 16.8,11.1 14.8,11.1 14.8,12.5 16.8,12.5 16.8,14.5 18.2,14.5 
		18.2,12.5 20.2,12.5 	"/>
</g>
</svg>
