<?xml version="1.0" encoding="utf-8"?>
<!-- Generator: Adobe Illustrator 23.0.3, SVG Export Plug-In . SVG Version: 6.00 Build 0)  -->
<svg version="1.1" id="Layer_1" xmlns="http://www.w3.org/2000/svg" xmlns:xlink="http://www.w3.org/1999/xlink" x="0px" y="0px"
	 width="24px" height="24px" viewBox="0 0 24 24" style="enable-background:new 0 0 24 24;" xml:space="preserve">
<style type="text/css">
	.st0{fill:none;stroke:#FFFFFF;stroke-width:2;stroke-miterlimit:10;}
</style>
<g>
	<path class="st0" d="M21,21.8v-3.7c0-2.1-2.8-3.4-5.5-4l-0.9,2l-2.7,1.5l0,0L9.4,16l-0.9-2c-2.7,0.6-5.5,2-5.5,4v3.7"/>
	<line class="st0" x1="11.9" y1="17.3" x2="11.9" y2="21.8"/>
	<path class="st0" d="M8.6,7.2c0,1.5,1.5,3.3,3.3,3.3l0,0l0,0l0,0c1.8,0,3.3-1.8,3.3-3.3l0.1-2.8c0-0.6-1.8-2.2-3.4-2.2
		c-1.6-0.1-3.4,1.5-3.4,2.2L8.6,7.2z"/>
</g>
</svg>
