<?xml version="1.0" encoding="utf-8"?>
<!-- Generator: Adobe Illustrator 23.0.3, SVG Export Plug-In . SVG Version: 6.00 Build 0)  -->
<svg version="1.1" id="Layer_1" xmlns="http://www.w3.org/2000/svg" xmlns:xlink="http://www.w3.org/1999/xlink" x="0px" y="0px"
	 width="24px" height="24px" viewBox="0 0 24 24" style="enable-background:new 0 0 24 24;" xml:space="preserve">
<style type="text/css">
	.st0{fill:none;stroke:#FFFFFF;stroke-width:2;stroke-linecap:round;stroke-linejoin:round;stroke-miterlimit:10;}
	.st1{fill:none;stroke:#FFFFFF;stroke-width:2;stroke-miterlimit:10;}
</style>
<g>
	<path class="st0" d="M4.5,11.2l-0.6,5.6c-0.2,1.9,0.8,3.7,2.5,4.3c0.3,0.1,0.8,0.2,1.4,0.2h8.3c0.8,0,1.6-0.2,2.3-0.7
		c1.3-0.8,1.9-2.3,1.6-3.8l-0.6-5.6C19.5,9.5,4.5,9.5,4.5,11.2z M12,14.3v1.2"/>
	<path class="st1" d="M17.1,9.5l0.1-0.9c0.1-2.7-1.5-5.1-4-5.7c-0.5-0.1-0.8-0.1-1.2-0.1c-0.5,0-1,0.1-1.6,0.2
		C8.1,3.7,6.7,6,6.8,8.4v1"/>
</g>
</svg>
