<?xml version="1.0" encoding="utf-8"?>
<!-- Generator: Adobe Illustrator 23.0.3, SVG Export Plug-In . SVG Version: 6.00 Build 0)  -->
<svg version="1.1" id="Layer_1" xmlns="http://www.w3.org/2000/svg" xmlns:xlink="http://www.w3.org/1999/xlink" x="0px" y="0px"
	 width="24px" height="24px" viewBox="0 0 24 24" style="enable-background:new 0 0 24 24;" xml:space="preserve">
<style type="text/css">
	.st0{fill:#525252;}
</style>
<g>
	<path class="st0" d="M3.9,4.5C3.4,5,3.4,5.8,3.9,6.3L9.6,12l-5.7,5.7l0,0c-0.5,0.5-0.5,1.4,0,1.9l0,0c0.5,0.5,1.4,0.5,1.9,0
		l6.6-6.6l0,0c0.5-0.5,0.5-1.4,0-1.9L5.7,4.5l0,0C5.2,4,4.4,4,3.9,4.5L3.9,4.5z"/>
	<path class="st0" d="M11.6,4.5c-0.5,0.5-0.5,1.3,0,1.8l5.7,5.7l-5.7,5.7l0,0c-0.5,0.5-0.5,1.4,0,1.9l0,0c0.5,0.5,1.4,0.5,1.9,0
		l6.6-6.6l0,0c0.5-0.5,0.5-1.4,0-1.9l-6.7-6.6l0,0C12.9,4,12.1,4,11.6,4.5L11.6,4.5z"/>
</g>
</svg>
