<?xml version="1.0" encoding="utf-8"?>
<!-- Generator: Adobe Illustrator 23.0.3, SVG Export Plug-In . SVG Version: 6.00 Build 0)  -->
<svg version="1.1" id="Layer_1" xmlns="http://www.w3.org/2000/svg" xmlns:xlink="http://www.w3.org/1999/xlink" x="0px" y="0px"
	 width="20px" height="20px" viewBox="0 0 20 20" style="enable-background:new 0 0 20 20;" xml:space="preserve">
<style type="text/css">
	.st0{fill:none;stroke:#525252;stroke-width:2;stroke-linecap:round;stroke-linejoin:round;stroke-miterlimit:10;}
	.st1{fill:none;stroke:#525252;stroke-width:2;stroke-linejoin:round;stroke-miterlimit:10;}
</style>
<g>
	<path class="st0" d="M3.5,9.3L3,14.1c-0.2,1.6,0.7,3.2,2.2,3.7C5.5,17.9,5.9,18,6.4,18h7.2c0.7,0,1.4-0.2,2-0.6
		c1.1-0.7,1.6-2,1.4-3.3l-0.5-4.8C16.5,7.8,3.5,7.8,3.5,9.3z M10,12V13"/>
	<path class="st1" d="M14.4,7.8L14.5,7c0.1-2.3-1.3-4.4-3.5-4.9C10.6,2,10.3,2,10,2C9.6,2,9.1,2.1,8.6,2.2c-2,0.6-3.2,2.6-3.1,4.7
		l0,0.9"/>
</g>
</svg>
