<?xml version="1.0" encoding="utf-8"?>
<!-- Generator: Adobe Illustrator 23.0.3, SVG Export Plug-In . SVG Version: 6.00 Build 0)  -->
<svg version="1.1" id="Layer_1" xmlns="http://www.w3.org/2000/svg" xmlns:xlink="http://www.w3.org/1999/xlink" x="0px" y="0px"
	 width="35px" height="35px" viewBox="0 0 35 35" style="enable-background:new 0 0 35 35;" xml:space="preserve">
<style type="text/css">
	.st0{fill:none;stroke:#525252;stroke-width:2;stroke-linecap:round;stroke-miterlimit:10;}
</style>
<circle class="st0" cx="17.5" cy="17.5" r="16.5"/>
<g>
	<path class="st0" d="M18.4,12.5c1.2-0.3,2.5-0.1,3.5,0.9c0.9,0.9,1.2,2.3,0.9,3.5"/>
	<g>
		<path class="st0" d="M26.5,18c0.8-2.5,0.2-5.4-1.9-7.4c-2-2-4.9-2.6-7.4-1.9"/>
	</g>
	<path class="st0" d="M26.5,21.5v1.8c0,1.8-1.5,3.3-3.3,3.3H11.4c-1.8,0-3.3-1.5-3.3-3.3v-8.6c0-1.3,1-2.3,2.3-2.3h4.4"/>
	<path class="st0" d="M20.2,19L19,20.2c-1,1-2.6,1-3.6,0l-6.4-6.4"/>
</g>
</svg>
