<?xml version="1.0" encoding="utf-8"?>
<!-- Generator: Adobe Illustrator 23.0.3, SVG Export Plug-In . SVG Version: 6.00 Build 0)  -->
<svg version="1.1" id="LINE_LOGO" xmlns="http://www.w3.org/2000/svg" xmlns:xlink="http://www.w3.org/1999/xlink" x="0px" y="0px"
	 width="24px" height="24px" viewBox="0 0 24 24" style="enable-background:new 0 0 24 24;" xml:space="preserve">
<style type="text/css">
	.st0{fill:#00B900;}
	.st1{fill:#FFFFFF;}
</style>
<g id="TYPE_A_1_">
	<g>
		<path class="st0" d="M22.8,10.5c0-4.8-4.8-8.7-10.8-8.7c-5.9,0-10.8,3.9-10.8,8.7c0,4.3,3.8,7.9,9,8.6c0.4,0.1,0.8,0.2,0.9,0.5
			c0.1,0.3,0.1,0.7,0,1c0,0-0.1,0.8-0.2,0.9c0,0.3-0.2,1.1,0.9,0.6c1.1-0.5,6.2-3.6,8.5-6.2h0C22,14.1,22.8,12.4,22.8,10.5"/>
		<g>
			<path class="st1" d="M9.8,8.2H9.1c-0.1,0-0.2,0.1-0.2,0.2v4.7c0,0.1,0.1,0.2,0.2,0.2h0.8c0.1,0,0.2-0.1,0.2-0.2V8.4
				C10,8.2,9.9,8.2,9.8,8.2"/>
			<path class="st1" d="M15,8.2h-0.8c-0.1,0-0.2,0.1-0.2,0.2v2.8l-2.1-2.9c0,0,0,0,0,0c0,0,0,0,0,0c0,0,0,0,0,0c0,0,0,0,0,0
				c0,0,0,0,0,0c0,0,0,0,0,0c0,0,0,0,0,0c0,0,0,0,0,0c0,0,0,0,0,0c0,0,0,0,0,0c0,0,0,0,0,0c0,0,0,0,0,0c0,0,0,0,0,0c0,0,0,0,0,0
				c0,0,0,0,0,0c0,0,0,0,0,0c0,0,0,0,0,0c0,0,0,0,0,0c0,0,0,0,0,0H11c-0.1,0-0.2,0.1-0.2,0.2v4.7c0,0.1,0.1,0.2,0.2,0.2h0.8
				c0.1,0,0.2-0.1,0.2-0.2v-2.8l2.2,2.9c0,0,0,0,0.1,0.1c0,0,0,0,0,0c0,0,0,0,0,0c0,0,0,0,0,0c0,0,0,0,0,0c0,0,0,0,0,0c0,0,0,0,0,0
				c0,0,0,0,0,0c0,0,0,0,0,0c0,0,0,0,0.1,0H15c0.1,0,0.2-0.1,0.2-0.2V8.4C15.2,8.2,15.1,8.2,15,8.2"/>
			<path class="st1" d="M8,12.1H5.9V8.4c0-0.1-0.1-0.2-0.2-0.2H5c-0.1,0-0.2,0.1-0.2,0.2v4.7v0c0,0.1,0,0.1,0.1,0.1c0,0,0,0,0,0
				c0,0,0,0,0,0c0,0,0.1,0.1,0.1,0.1h0h3c0.1,0,0.2-0.1,0.2-0.2v-0.8C8.2,12.2,8.1,12.1,8,12.1"/>
			<path class="st1" d="M19.2,9.3c0.1,0,0.2-0.1,0.2-0.2V8.4c0-0.1-0.1-0.2-0.2-0.2h-3h0c-0.1,0-0.1,0-0.1,0.1c0,0,0,0,0,0
				c0,0,0,0,0,0c0,0-0.1,0.1-0.1,0.1v0v4.7v0c0,0.1,0,0.1,0.1,0.1c0,0,0,0,0,0c0,0,0,0,0,0c0,0,0.1,0.1,0.1,0.1h0h3
				c0.1,0,0.2-0.1,0.2-0.2v-0.8c0-0.1-0.1-0.2-0.2-0.2h-2.1v-0.8h2.1c0.1,0,0.2-0.1,0.2-0.2v-0.8c0-0.1-0.1-0.2-0.2-0.2h-2.1V9.3
				H19.2z"/>
		</g>
	</g>
</g>
</svg>
