<?xml version="1.0" encoding="utf-8"?>
<!-- Generator: Adobe Illustrator 23.0.3, SVG Export Plug-In . SVG Version: 6.00 Build 0)  -->
<svg version="1.1" id="Layer_1" xmlns="http://www.w3.org/2000/svg" xmlns:xlink="http://www.w3.org/1999/xlink" x="0px" y="0px"
	 width="35px" height="35px" viewBox="0 0 35 35" style="enable-background:new 0 0 35 35;" xml:space="preserve">
<style type="text/css">
	.st0{fill:#525252;}
	.st1{fill:none;stroke:#525252;stroke-width:2;stroke-linecap:round;stroke-miterlimit:10;}
</style>
<path class="st0" d="M27.6,19.5c0-1-0.3-1.3-0.7-1.6c0.2-0.3,0.7-1,0.7-1.6c0-1.5-1.4-2-3.7-2c-2.1,0-3.9,0.5-3.9,0.5
	c0.1-0.7,1-2.6,1-3.2c0-1.3-0.3-3-1.5-3.6c-0.4-0.2-0.7-0.3-1.1-0.3c-0.7,0-1.2,0.3-1.3,0.5c-0.1,0.1-0.1,0.5-0.1,0.6l0.2,2.5
	c0,2-3.1,4.5-3.1,7.4v6c0,1.1,1.4,1.8,3.5,1.8h5.7c1.5,0,1.8-0.3,2.2-1c0.3-0.5,0.2-1,0-1.5c0.6-0.2,1.2-0.8,1.4-1.6
	c0.1-0.5,0-1-0.2-1.3C27.1,20.9,27.6,20.5,27.6,19.5 M8.9,16h1.8c0.8,0,1.5,0.7,1.5,1.5v8.3c0,0.8-0.7,1.5-1.5,1.5H8.9
	c-0.8,0-1.5-0.7-1.5-1.5v-8.3C7.4,16.7,8.1,16,8.9,16"/>
<circle class="st1" cx="17.5" cy="17.5" r="16.5"/>
</svg>
