<?xml version="1.0" encoding="utf-8"?>
<!-- Generator: Adobe Illustrator 23.0.3, SVG Export Plug-In . SVG Version: 6.00 Build 0)  -->
<svg version="1.1" id="Layer_1" xmlns="http://www.w3.org/2000/svg" xmlns:xlink="http://www.w3.org/1999/xlink" x="0px" y="0px"
	 width="24px" height="24px" viewBox="0 0 24 24" style="enable-background:new 0 0 24 24;" xml:space="preserve">
<style type="text/css">
	.st0{fill:#525252;}
</style>
<path class="st0" d="M12,10.8c1.1,0,2-0.9,2-2s-0.9-2-2-2s-2,0.9-2,2S10.9,10.8,12,10.8z M11.3,17.7c0.4,0.4,1,0.4,1.4,0
	c0,0,0,0,0,0l4.1-4.1c2.7-2.7,2.7-7,0-9.6s-7-2.7-9.6,0s-2.7,7,0,9.6c0,0,0,0,0,0L11.3,17.7z M7.2,8.3c0.1-1.4,0.9-2.7,2.1-3.6
	c1.6-1.1,3.7-1.1,5.3,0c2.2,1.5,2.8,4.5,1.3,6.7c-0.2,0.3-0.4,0.5-0.6,0.7L12,15.6l-3.4-3.4C7.6,11.2,7.1,9.8,7.2,8.3z M19,20H5
	c-0.6,0-1,0.4-1,1s0.4,1,1,1h14c0.6,0,1-0.4,1-1S19.6,20,19,20z"/>
</svg>
