<?xml version="1.0" encoding="utf-8"?>
<!-- Generator: Adobe Illustrator 23.0.3, SVG Export Plug-In . SVG Version: 6.00 Build 0)  -->
<svg version="1.1" id="Layer_1" xmlns="http://www.w3.org/2000/svg" xmlns:xlink="http://www.w3.org/1999/xlink" x="0px" y="0px"
	 width="1200px" height="280px" viewBox="0 0 1200 280" style="enable-background:new 0 0 1200 280;" xml:space="preserve">
<style type="text/css">
	.st0{fill:#6950A0;}
	.st1{clip-path:url(#SVGID_2_);fill:none;stroke:#9865DB;stroke-width:20;stroke-miterlimit:10;}
	.st2{opacity:0.5;clip-path:url(#SVGID_2_);fill:none;stroke:#9865DB;stroke-width:20;stroke-miterlimit:10;}
</style>
<path class="st0" d="M1185,280H15c-8.3,0-15-6.7-15-15V15C0,6.7,6.7,0,15,0h1170c8.3,0,15,6.7,15,15v250
	C1200,273.3,1193.3,280,1185,280z"/>
<g>
	<defs>
		<path id="SVGID_1_" d="M1185,280H15c-8.3,0-15-6.7-15-15V15C0,6.7,6.7,0,15,0h1170c8.3,0,15,6.7,15,15v250
			C1200,273.3,1193.3,280,1185,280z"/>
	</defs>
	<clipPath id="SVGID_2_">
		<use xlink:href="#SVGID_1_"  style="overflow:visible;"/>
	</clipPath>
	<path class="st1" d="M399.9,150.3c0,108.1,86.5,194.6,192.9,201.1c71.9,4.4,143.5-16.1,207.3-48.7c-34.6-34.6-26.9-85.5-15.7-119.9
		c13.6-41.6,14.2-87.6-5.8-126.6C764.8,29.4,745.1,6.1,721-11.9c-9.2-6.9-29.9-17.3-29.9-17.3c-26.6-12.7-56.4-19.9-87.8-19.9
		C491-49.1,399.9,42,399.9,154.4V150.3z"/>
	<path class="st2" d="M1431.4-50.2c0,108.1-86.5,194.6-192.9,201.1c-71.9,4.4-143.5-16.1-207.3-48.7c34.6-34.6,26.9-85.5,15.7-119.9
		c-13.6-41.6-14.2-87.6,5.8-126.6c13.8-26.9,33.6-50.3,57.6-68.3c9.2-6.9,29.9-17.3,29.9-17.3c26.6-12.7,56.4-19.9,87.8-19.9
		c112.4,0,203.4,91.1,203.4,203.4V-50.2z"/>
	<path class="st2" d="M208.1,339.4c0,108.1-86.5,194.6-192.9,201.1c-71.9,4.4-143.5-16.1-207.3-48.7c34.6-34.6,26.9-85.5,15.7-119.9
		c-13.6-41.6-14.2-87.6,5.8-126.6c13.8-26.9,33.6-50.3,57.6-68.3c9.2-6.9,29.9-17.3,29.9-17.3C-56.6,147.1-26.8,140,4.6,140
		c112.4,0,203.4,91.1,203.4,203.4V339.4z"/>
</g>
</svg>
