<?xml version="1.0" encoding="utf-8"?>
<!-- Generator: Adobe Illustrator 23.0.3, SVG Export Plug-In . SVG Version: 6.00 Build 0)  -->
<svg version="1.1" id="Layer_1" xmlns="http://www.w3.org/2000/svg" xmlns:xlink="http://www.w3.org/1999/xlink" x="0px" y="0px"
	 width="24px" height="24px" viewBox="0 0 24 24" style="enable-background:new 0 0 24 24;" xml:space="preserve">
<style type="text/css">
	.st0{fill:#525252;}
</style>
<path class="st0" d="M16.3,14.9c-0.2,0-0.4-0.1-0.6-0.1c-0.4-0.1-0.8-0.2-1.1-0.3c-0.8-0.3-1.7,0.1-2.1,0.9l-0.2,0.4
	c-0.8-0.5-1.6-1-2.3-1.7s-1.2-1.4-1.7-2.3l0.4-0.2c0.8-0.4,1.2-1.3,0.9-2.1C9.5,9,9.3,8.7,9.3,8.3c0-0.2-0.1-0.4-0.1-0.6
	C8.9,6.5,7.9,5.6,6.6,5.6H4c-0.7,0-1.4,0.3-1.9,0.9C1.6,7,1.4,7.8,1.5,8.5C2,12,3.6,15.3,6.1,17.9c2.5,2.5,5.8,4.2,9.4,4.6
	c0.1,0,0.2,0,0.3,0c0.6,0,1.2-0.2,1.7-0.6c0.5-0.5,0.9-1.2,0.9-1.9v-2.6C18.4,16.2,17.5,15.1,16.3,14.9z M16.7,20
	c0,0.2-0.1,0.5-0.3,0.6c-0.2,0.2-0.4,0.3-0.7,0.2c-3.2-0.4-6.1-1.9-8.4-4.1C5,14.4,3.6,11.4,3.1,8.3c0-0.3,0-0.5,0.2-0.7
	C3.6,7.4,3.8,7.3,4,7.3h2.6C7,7.3,7.4,7.6,7.4,8c0,0.2,0.1,0.5,0.1,0.7C7.7,9.1,7.8,9.5,8,10l-1.2,0.6c-0.2,0.1-0.4,0.3-0.4,0.5
	c-0.1,0.2-0.1,0.4,0,0.6c1.2,2.6,3.3,4.7,6,6c0.2,0.1,0.4,0.1,0.6,0c0.2-0.1,0.4-0.2,0.5-0.4L14,16c0.4,0.2,0.9,0.3,1.3,0.4
	c0.2,0.1,0.5,0.1,0.7,0.1c0.4,0.1,0.7,0.4,0.7,0.9V20z M13.7,3.5c-0.2,0-0.4,0-0.6,0c-0.5,0-0.8,0.5-0.8,0.9c0,0.5,0.5,0.8,0.9,0.8
	h0.5c2.8,0,5.1,2.3,5.1,5.1c0,0.2,0,0.3,0,0.5c0,0.5,0.3,0.9,0.8,0.9h0.1c0.4,0,0.8-0.3,0.9-0.8c0-0.2,0-0.4,0-0.6
	C20.5,6.6,17.5,3.5,13.7,3.5z M14.4,11.3c0,0.5,0.4,0.9,0.9,0.9s0.9-0.4,0.9-0.9c0-1.9-1.5-3.4-3.4-3.4c-0.5,0-0.9,0.4-0.9,0.9
	s0.4,0.9,0.9,0.9C13.7,9.6,14.4,10.4,14.4,11.3z"/>
</svg>
