<?xml version="1.0" encoding="utf-8"?>
<!-- Generator: Adobe Illustrator 23.0.3, SVG Export Plug-In . SVG Version: 6.00 Build 0)  -->
<svg version="1.1" id="Layer_1" xmlns="http://www.w3.org/2000/svg" xmlns:xlink="http://www.w3.org/1999/xlink" x="0px" y="0px"
	 width="24px" height="24px" viewBox="0 0 24 24" style="enable-background:new 0 0 24 24;" xml:space="preserve">
<style type="text/css">
	.st0{fill:#0076FA;}
	.st1{fill:#FFFFFF;}
</style>
<g>
	<path class="st0" d="M22.4,12c0-5.8-4.7-10.4-10.4-10.4C6.2,1.6,1.6,6.2,1.6,12c0,5.2,3.8,9.5,8.8,10.3V15H7.7v-3h2.7l0-2.3
		c0-2.6,1.5-4.1,3.9-4.1c1.1,0,2.3,0.2,2.3,0.2v2.5h-1.3c-1.3,0-1.7,0.8-1.7,1.6l0,2h2.9l-0.5,3h-2.4v7.3
		C18.6,21.5,22.4,17.2,22.4,12"/>
	<path class="st1" d="M16.1,15l0.5-3h-2.9l0-2c0-0.8,0.4-1.6,1.7-1.6h1.3V5.9c0,0-1.2-0.2-2.3-0.2c-2.4,0-3.9,1.4-3.9,4.1l0,2.3H7.7
		v3h2.7v7.3c0.5,0.1,1.1,0.1,1.6,0.1c0.6,0,1.1,0,1.6-0.1V15H16.1z"/>
</g>
</svg>
