<?xml version="1.0" encoding="utf-8"?>
<!-- Generator: Adobe Illustrator 23.0.3, SVG Export Plug-In . SVG Version: 6.00 Build 0)  -->
<svg version="1.1" id="Layer_1" xmlns="http://www.w3.org/2000/svg" xmlns:xlink="http://www.w3.org/1999/xlink" x="0px" y="0px"
	 width="24px" height="24px" viewBox="0 0 24 24" style="enable-background:new 0 0 24 24;" xml:space="preserve">
<style type="text/css">
	.st0{fill:#FFFFFF;}
</style>
<path class="st0" d="M21,14h-1V3c0-0.6-0.4-1-1-1H5C4.4,2,4,2.4,4,3v11H3c-0.6,0-1,0.4-1,1s0.4,1,1,1h8v1.1l-4.6,3
	c-0.5,0.3-0.6,0.9-0.3,1.4C6.3,21.8,6.6,22,7,22c0.2,0,0.4-0.1,0.6-0.2l3.4-2.3V21c0,0.6,0.4,1,1,1s1-0.4,1-1v-1.5l3.5,2.3
	c0.2,0.1,0.4,0.2,0.5,0.2c0.6,0,1-0.5,1-1c0-0.3-0.2-0.6-0.4-0.8l-4.6-3V16h8c0.6,0,1-0.4,1-1S21.6,14,21,14z M18,14H6V4h12V14z
	 M9,12c0.3,0,0.6-0.2,0.8-0.4l1.3-2l1.1,1.1c0.2,0.2,0.5,0.3,0.8,0.3c0.3,0,0.6-0.2,0.7-0.4l2-3c0.3-0.5,0.1-1.1-0.4-1.4
	c-0.4-0.2-0.9-0.1-1.3,0.3l-1.3,2l-1.1-1.1C11.5,7.1,11.2,7,10.9,7c-0.3,0-0.6,0.2-0.7,0.4l-2,3c-0.3,0.5-0.2,1.1,0.3,1.4
	C8.6,11.9,8.8,12,9,12z"/>
</svg>
