<?xml version="1.0" encoding="utf-8"?>
<!-- Generator: Adobe Illustrator 23.0.3, SVG Export Plug-In . SVG Version: 6.00 Build 0)  -->
<svg version="1.1" id="Layer_1" xmlns="http://www.w3.org/2000/svg" xmlns:xlink="http://www.w3.org/1999/xlink" x="0px" y="0px"
	 width="24px" height="24px" viewBox="0 0 24 24" style="enable-background:new 0 0 24 24;" xml:space="preserve">
<style type="text/css">
	.st0{fill:#FFFFFF;}
</style>
<path class="st0" d="M21.7,2.9c-0.2-0.2-0.5-0.3-0.8-0.2c-0.8,0.2-1.7,0-2.3-0.5c-0.3-0.2-0.8-0.2-1.1,0c-0.7,0.5-1.5,0.6-2.3,0.5
	c-0.3-0.1-0.6,0-0.8,0.2C14,3,13.8,3.3,13.8,3.6V7c0,1.5,0.7,2.8,1.9,3.7l1.6,1.2c0.3,0.3,0.8,0.3,1.2,0l1.6-1.2
	c1.2-0.9,1.9-2.2,1.9-3.7V3.6C22.1,3.3,21.9,3,21.7,2.9z M20.1,7c0,0.8-0.4,1.5-1.1,2l-1,0.7L16.9,9c-0.6-0.5-1-1.2-1.1-2V4.7
	c0.8,0,1.5-0.2,2.2-0.5c0.7,0.3,1.4,0.5,2.1,0.6L20.1,7z M18.9,14c-0.5-0.1-1.1,0.2-1.2,0.7c-0.8,3.1-3.6,5.3-6.8,5.3H5.3L6,19.4
	c0.4-0.4,0.4-1,0-1.4c-2.8-2.7-2.8-7.1-0.1-9.9C7.2,6.7,9,6,10.9,6c0.6,0,1-0.4,1-1s-0.4-1-1-1c-5,0-9,4.1-9,9c0,2,0.7,4,2,5.6
	l-1.7,1.7c-0.4,0.4-0.4,1,0,1.4C2.4,21.9,2.7,22,2.9,22h8c4.1,0,7.7-2.8,8.7-6.8C19.8,14.7,19.5,14.2,18.9,14C19,14,18.9,14,18.9,14
	z"/>
</svg>
