<?xml version="1.0" encoding="utf-8"?>
<!-- Generator: Adobe Illustrator 23.0.3, SVG Export Plug-In . SVG Version: 6.00 Build 0)  -->
<svg version="1.1" id="Layer_1" xmlns="http://www.w3.org/2000/svg" xmlns:xlink="http://www.w3.org/1999/xlink" x="0px" y="0px"
	 width="24px" height="24px" viewBox="0 0 24 24" style="enable-background:new 0 0 24 24;" xml:space="preserve">
<style type="text/css">
	.st0{fill:#FFFFFF;}
</style>
<path class="st0" d="M8,17c-0.6,0-1,0.4-1,1s0.4,1,1,1s1-0.4,1-1S8.6,17,8,17z M8,11c-0.6,0-1,0.4-1,1s0.4,1,1,1s1-0.4,1-1
	S8.6,11,8,11z M16,2H8C5.8,2,4,3.8,4,6v12c0,2.2,1.8,4,4,4h8c2.2,0,4-1.8,4-4V6C20,3.8,18.2,2,16,2z M18,18c0,1.1-0.9,2-2,2H8
	c-1.1,0-2-0.9-2-2v-2.6C6.6,15.8,7.3,16,8,16h8c0.7,0,1.4-0.2,2-0.6V18z M18,12c0,1.1-0.9,2-2,2H8c-1.1,0-2-0.9-2-2V9.4
	C6.6,9.8,7.3,10,8,10h8c0.7,0,1.4-0.2,2-0.6V12z M16,8H8C6.9,8,6,7.1,6,6s0.9-2,2-2h8c1.1,0,2,0.9,2,2S17.1,8,16,8z"/>
</svg>
