<?xml version="1.0" encoding="utf-8"?>
<!-- Generator: Adobe Illustrator 23.0.3, SVG Export Plug-In . SVG Version: 6.00 Build 0)  -->
<svg version="1.1" id="Layer_1" xmlns="http://www.w3.org/2000/svg" xmlns:xlink="http://www.w3.org/1999/xlink" x="0px" y="0px"
	 width="24px" height="24px" viewBox="0 0 24 24" style="enable-background:new 0 0 24 24;" xml:space="preserve">
<style type="text/css">
	.st0{fill:#FFFFFF;}
</style>
<path class="st0" d="M21,20H4v-0.5l5-5l3.8,3.8c0.4,0.4,1,0.4,1.4,0l7.5-7.5c0.4-0.4,0.4-1,0-1.4c0,0,0,0,0,0c-0.4-0.4-1-0.4-1.4,0
	l-6.8,6.8l-3.8-3.8c-0.4-0.4-1-0.4-1.4,0L4,16.6v-5.2l5-5l2.8,2.8c0.4,0.4,1,0.4,1.4,0L18,4.5l2.2,2.2c0.4,0.4,1,0.4,1.4,0
	c0.4-0.4,0.4-1,0-1.4l0,0l-2.9-2.9c-0.4-0.4-1-0.4-1.4,0l-4.8,4.8L9.7,4.3C9.3,4,8.7,4,8.3,4.3L4,8.6V3c0-0.6-0.4-1-1-1S2,2.4,2,3
	v18c0,0.6,0.4,1,1,1h18c0.6,0,1-0.4,1-1S21.6,20,21,20z"/>
</svg>
