<?xml version="1.0" encoding="utf-8"?>
<!-- Generator: Adobe Illustrator 23.0.3, SVG Export Plug-In . SVG Version: 6.00 Build 0)  -->
<svg version="1.1" id="Layer_1" xmlns="http://www.w3.org/2000/svg" xmlns:xlink="http://www.w3.org/1999/xlink" x="0px" y="0px"
	 width="24px" height="24px" viewBox="0 0 24 24" style="enable-background:new 0 0 24 24;" xml:space="preserve">
<style type="text/css">
	.st0{fill:#FFFFFF;}
</style>
<path class="st0" d="M10.3,11.7c0.4,0.4,1,0.4,1.4,0c0,0,0,0,0,0l4-4c0.4-0.4,0.4-1,0-1.4c-0.4-0.4-1-0.4-1.4,0L11,9.6L9.7,8.3
	c-0.4-0.4-1-0.4-1.4,0s-0.4,1,0,1.4L10.3,11.7z M21,14h-1V4h1c0.6,0,1-0.4,1-1s-0.4-1-1-1H3C2.4,2,2,2.4,2,3s0.4,1,1,1h1v10H3
	c-0.6,0-1,0.4-1,1s0.4,1,1,1h8v1.1l-4.6,3c-0.5,0.3-0.6,0.9-0.3,1.4C6.3,21.8,6.6,22,7,22c0.2,0,0.4-0.1,0.6-0.2l3.4-2.3V21
	c0,0.6,0.4,1,1,1s1-0.4,1-1v-1.5l3.5,2.3c0.2,0.1,0.4,0.2,0.5,0.2c0.6,0,1-0.5,1-1c0-0.3-0.2-0.6-0.4-0.8l-4.6-3V16h8
	c0.6,0,1-0.4,1-1S21.6,14,21,14z M18,14H6V4h12V14z"/>
</svg>
