<?xml version="1.0" encoding="utf-8"?>
<!-- Generator: Adobe Illustrator 23.0.3, SVG Export Plug-In . SVG Version: 6.00 Build 0)  -->
<svg version="1.1" id="Layer_1" xmlns="http://www.w3.org/2000/svg" xmlns:xlink="http://www.w3.org/1999/xlink" x="0px" y="0px"
	 width="24px" height="24px" viewBox="0 0 24 24" style="enable-background:new 0 0 24 24;" xml:space="preserve">
<style type="text/css">
	.st0{fill:#FFFFFF;}
</style>
<path class="st0" d="M12,1C6.1,0.8,1.2,5.4,1,11.2c0,0.2,0,0.3,0,0.5c0,3,1.2,5.9,3.4,7.9l0.1,1.7c0,1,0.8,1.7,1.8,1.7
	c0.3,0,0.5-0.1,0.7-0.2L8.9,22c1,0.3,2,0.4,3.1,0.4c5.9,0.2,10.8-4.4,11-10.2c0-0.2,0-0.3,0-0.5C23,5.8,18.3,1,12.5,1
	C12.3,1,12.2,1,12,1z M12,20.4c-0.9,0-1.8-0.1-2.6-0.4C9,19.9,8.5,20,8.2,20.1l-1.7,0.8l0-1.5c0-0.5-0.2-0.9-0.6-1.3
	C4,16.5,3,14.1,3,11.7C3,6.9,6.8,3,11.6,3c0.1,0,0.3,0,0.4,0c4.8-0.2,8.8,3.6,9,8.4c0.2,4.8-3.6,8.8-8.4,9
	C12.4,20.4,12.2,20.4,12,20.4z M15.7,8.6l-2.3,2.8l-3.3-2.1C9.6,9,9.1,9.1,8.8,9.5l-3.1,3.6c-0.4,0.4-0.3,1.1,0.1,1.4
	s1.1,0.3,1.4-0.1c0,0,0,0,0,0l2.5-3l3.3,2.1c0.4,0.3,1,0.2,1.3-0.2l2.9-3.4c0.4-0.4,0.3-1.1-0.1-1.4C16.7,8.1,16.1,8.2,15.7,8.6
	C15.7,8.6,15.7,8.6,15.7,8.6z"/>
</svg>
