<?xml version="1.0" encoding="utf-8"?>
<!-- Generator: Adobe Illustrator 23.0.3, SVG Export Plug-In . SVG Version: 6.00 Build 0)  -->
<svg version="1.1" id="Layer_1" xmlns="http://www.w3.org/2000/svg" xmlns:xlink="http://www.w3.org/1999/xlink" x="0px" y="0px"
	 width="24px" height="24px" viewBox="0 0 24 24" style="enable-background:new 0 0 24 24;" xml:space="preserve">
<style type="text/css">
	.st0{fill:#FFFFFF;}
</style>
<path class="st0" d="M20.6,15.8c0.6-0.6,0.9-1.4,0.9-2.3c0-1.9-1.6-3.5-3.5-3.5s-3.5,1.6-3.5,3.5c0,0.8,0.3,1.6,0.9,2.3
	C13.9,16.7,13,18.3,13,20c0,0.6,0.4,1,1,1s1-0.4,1-1c0-1.7,1.3-3,3-3s3,1.3,3,3c0,0.6,0.4,1,1,1s1-0.4,1-1
	C23,18.3,22.1,16.7,20.6,15.8z M18,15c-0.8,0-1.5-0.7-1.5-1.5S17.2,12,18,12s1.5,0.7,1.5,1.5C19.5,14.3,18.8,15,18,15z M6.8,7.7l2,2
	c0.4,0.4,1,0.4,1.4,0c0.4-0.4,0.4-1,0-1.4L9.9,8h4.2l-0.3,0.3c-0.4,0.4-0.4,1,0,1.4c0.4,0.4,1,0.4,1.4,0c0,0,0,0,0,0l2-2
	c0.4-0.4,0.4-1,0-1.4l-2-2c-0.4-0.4-1-0.4-1.4,0c-0.4,0.4-0.4,1,0,1.4L14.1,6H9.9l0.3-0.3c0.4-0.4,0.4-1,0-1.4c-0.4-0.4-1-0.4-1.4,0
	l-2,2C6.4,6.7,6.4,7.3,6.8,7.7z M8.6,15.8c0.6-0.6,0.9-1.4,0.9-2.3C9.5,11.6,7.9,10,6,10s-3.5,1.6-3.5,3.5c0,0.8,0.3,1.6,0.9,2.3
	C1.9,16.7,1,18.3,1,20c0,0.6,0.4,1,1,1s1-0.4,1-1c0-1.7,1.3-3,3-3s3,1.3,3,3c0,0.6,0.4,1,1,1s1-0.4,1-1C11,18.3,10.1,16.7,8.6,15.8
	L8.6,15.8z M6,15c-0.8,0-1.5-0.7-1.5-1.5S5.2,12,6,12s1.5,0.7,1.5,1.5C7.5,14.3,6.8,15,6,15z"/>
</svg>
