<?xml version="1.0" encoding="utf-8"?>
<!-- Generator: Adobe Illustrator 23.0.3, SVG Export Plug-In . SVG Version: 6.00 Build 0)  -->
<svg version="1.1" id="Layer_1" xmlns="http://www.w3.org/2000/svg" xmlns:xlink="http://www.w3.org/1999/xlink" x="0px" y="0px"
	 width="24px" height="24px" viewBox="0 0 24 24" style="enable-background:new 0 0 24 24;" xml:space="preserve">
<style type="text/css">
	.st0{fill:#FFFFFF;}
</style>
<path class="st0" d="M21.7,11.3l-8-8c-0.4-0.4-1-0.4-1.4,0C12.1,3.5,12,3.7,12,4v3.5c-5.7,0.5-10,5.3-10,11V20c0,0.6,0.4,1,1,1
	c0.3,0,0.6-0.1,0.8-0.4c2-2.4,4.8-3.8,7.9-4c0,0,0.2,0,0.3,0V20c0,0.6,0.4,1,1,1c0.3,0,0.5-0.1,0.7-0.3l8-8
	C22.1,12.3,22.1,11.7,21.7,11.3C21.7,11.3,21.7,11.3,21.7,11.3z M14,17.6v-2.1c0-0.6-0.4-1-1-1c0,0,0,0,0,0c-0.3,0-1.3,0-1.6,0.1
	c-2.7,0.2-5.3,1.3-7.4,2.9c0.5-4.6,4.4-8,8.9-8c0.6,0,1-0.4,1-1c0,0,0,0,0,0V6.4l5.6,5.6L14,17.6z"/>
</svg>
