<?xml version="1.0" encoding="utf-8"?>
<!-- Generator: Adobe Illustrator 23.0.3, SVG Export Plug-In . SVG Version: 6.00 Build 0)  -->
<svg version="1.1" id="Layer_1" xmlns="http://www.w3.org/2000/svg" xmlns:xlink="http://www.w3.org/1999/xlink" x="0px" y="0px"
	 width="24px" height="24px" viewBox="0 0 24 24" style="enable-background:new 0 0 24 24;" xml:space="preserve">
<style type="text/css">
	.st0{fill:#FFFFFF;}
</style>
<path class="st0" d="M19.8,7.1c-0.2-0.2-0.5-0.4-0.8-0.4H8V6.3c0-0.9,0.6-1.7,1.5-1.9c0.3,0.3,0.6,0.4,1,0.4h1
	c0.8,0,1.5-0.7,1.5-1.5s-0.7-1.5-1.5-1.5h-1C10,1.8,9.6,2,9.3,2.3C7.4,2.7,6,4.3,6,6.3v0.5H5c-0.3,0-0.6,0.1-0.8,0.4
	C4,7.4,3.9,7.7,4,8l0.6,2.5c0.3,1.2,1.3,2,2.5,2.2l0.8,7H7c-0.6,0-1,0.4-1,1s0.4,1,1,1h10c0.6,0,1-0.4,1-1s-0.4-1-1-1h-0.9l0.8-7
	c1.2-0.2,2.2-1.1,2.5-2.2L20,8C20.1,7.7,20,7.4,19.8,7.1z M14.1,19.8H9.9l-0.8-7h5.8L14.1,19.8z M17.4,10c-0.1,0.5-0.5,0.8-1,0.8
	H7.6c-0.5,0-0.9-0.3-1-0.8L6.3,8.8h11.4L17.4,10z"/>
</svg>
