<?xml version="1.0" encoding="utf-8"?>
<!-- Generator: Adobe Illustrator 23.0.3, SVG Export Plug-In . SVG Version: 6.00 Build 0)  -->
<svg version="1.1" id="Layer_1" xmlns="http://www.w3.org/2000/svg" xmlns:xlink="http://www.w3.org/1999/xlink" x="0px" y="0px"
	 width="24px" height="24px" viewBox="0 0 24 24" style="enable-background:new 0 0 24 24;" xml:space="preserve">
<style type="text/css">
	.st0{fill:#FFFFFF;}
</style>
<path class="st0" d="M20.6,19.2c2.3-3.1,1.7-7.5-1.4-9.8c-0.4-0.3-0.8-0.6-1.3-0.8C17.1,4.3,13,1.4,8.6,2.1S1.3,7,2.1,11.4
	c0.2,1.3,0.8,2.5,1.6,3.6l-1.4,1.4C2,16.6,1.9,17,2.1,17.4C2.2,17.8,2.6,18,3,18h5.7c1.2,2.4,3.6,4,6.3,4h6c0.4,0,0.8-0.2,0.9-0.6
	c0.2-0.4,0.1-0.8-0.2-1.1L20.6,19.2z M8,15c0,0.3,0,0.7,0.1,1H5.4l0.3-0.3c0.4-0.4,0.4-1,0-1.4c0,0,0,0,0,0C4.6,13.1,4,11.6,4,10
	c0-3.3,2.7-6,6-6c2.5,0,4.8,1.6,5.6,4c-0.2,0-0.4,0-0.6,0C11.1,8,8,11.1,8,15z M18.5,20L18.5,20L15,20c-2.8,0-5-2.2-5-5
	c0-2.8,2.2-5,5-5c2.8,0,5,2.2,5,5c0,1.3-0.5,2.6-1.5,3.5c-0.2,0.2-0.3,0.4-0.3,0.7C18.2,19.6,18.3,19.8,18.5,20z"/>
</svg>
