<?xml version="1.0" encoding="utf-8"?>
<!-- Generator: Adobe Illustrator 23.0.3, SVG Export Plug-In . SVG Version: 6.00 Build 0)  -->
<svg version="1.1" id="Layer_1" xmlns="http://www.w3.org/2000/svg" xmlns:xlink="http://www.w3.org/1999/xlink" x="0px" y="0px"
	 width="24px" height="24px" viewBox="0 0 24 24" style="enable-background:new 0 0 24 24;" xml:space="preserve">
<style type="text/css">
	.st0{fill:#FFFFFF;}
</style>
<path class="st0" d="M14,8h1c0.6,0,1-0.4,1-1s-0.4-1-1-1h-1c-0.6,0-1,0.4-1,1S13.4,8,14,8z M14,12h1c0.6,0,1-0.4,1-1s-0.4-1-1-1h-1
	c-0.6,0-1,0.4-1,1S13.4,12,14,12z M9,8h1c0.6,0,1-0.4,1-1s-0.4-1-1-1H9C8.4,6,8,6.4,8,7S8.4,8,9,8z M9,12h1c0.6,0,1-0.4,1-1
	s-0.4-1-1-1H9c-0.6,0-1,0.4-1,1S8.4,12,9,12z M21,20h-1V3c0-0.6-0.4-1-1-1H5C4.4,2,4,2.4,4,3v17H3c-0.6,0-1,0.4-1,1s0.4,1,1,1h18
	c0.6,0,1-0.4,1-1S21.6,20,21,20z M13,20h-2v-4h2V20z M18,20h-3v-5c0-0.6-0.4-1-1-1h-4c-0.6,0-1,0.4-1,1v5H6V4h12V20z"/>
</svg>
