<?xml version="1.0" encoding="utf-8"?>
<!-- Generator: Adobe Illustrator 23.0.3, SVG Export Plug-In . SVG Version: 6.00 Build 0)  -->
<svg version="1.1" id="Layer_1" xmlns="http://www.w3.org/2000/svg" xmlns:xlink="http://www.w3.org/1999/xlink" x="0px" y="0px"
	 width="24px" height="24px" viewBox="0 0 24 24" style="enable-background:new 0 0 24 24;" xml:space="preserve">
<style type="text/css">
	.st0{fill:#FFFFFF;}
</style>
<path class="st0" d="M17,11h-1c-0.6,0-1,0.4-1,1s0.4,1,1,1h1c0.6,0,1-0.4,1-1S17.6,11,17,11z M17,15h-1c-0.6,0-1,0.4-1,1
	c0,0.6,0.4,1,1,1h1c0.6,0,1-0.4,1-1C18,15.4,17.6,15,17,15z M11,9h6c0.6,0,1-0.4,1-1s-0.4-1-1-1h-6c-0.6,0-1,0.4-1,1S10.4,9,11,9z
	 M21,3H7C6.4,3,6,3.4,6,4v3H3C2.4,7,2,7.4,2,8v10c0,1.7,1.3,3,3,3h13c2.2,0,4-1.8,4-4V4C22,3.4,21.6,3,21,3z M6,18c0,0.6-0.4,1-1,1
	s-1-0.4-1-1V9h2V18z M20,17c0,1.1-0.9,2-2,2H7.8C7.9,18.7,8,18.3,8,18V5h12V17z M11,13h1c0.6,0,1-0.4,1-1s-0.4-1-1-1h-1
	c-0.6,0-1,0.4-1,1S10.4,13,11,13z M11,17h1c0.6,0,1-0.4,1-1c0-0.6-0.4-1-1-1h-1c-0.6,0-1,0.4-1,1C10,16.6,10.4,17,11,17z"/>
</svg>
