<?xml version="1.0" encoding="utf-8"?>
<!-- Generator: Adobe Illustrator 23.0.3, SVG Export Plug-In . SVG Version: 6.00 Build 0)  -->
<svg version="1.1" id="Layer_1" xmlns="http://www.w3.org/2000/svg" xmlns:xlink="http://www.w3.org/1999/xlink" x="0px" y="0px"
	 width="24px" height="24px" viewBox="0 0 24 24" style="enable-background:new 0 0 24 24;" xml:space="preserve">
<style type="text/css">
	.st0{fill:#FFFFFF;}
</style>
<path class="st0" d="M19,9c0-2.2-1.8-4-4-4V3c0-0.6-0.4-1-1-1s-1,0.4-1,1v2h-2V3c0-0.6-0.4-1-1-1S9,2.4,9,3v2H6C5.4,5,5,5.4,5,6
	s0.4,1,1,1h1v10H6c-0.6,0-1,0.4-1,1s0.4,1,1,1h3v2c0,0.6,0.4,1,1,1s1-0.4,1-1v-2h2v2c0,0.6,0.4,1,1,1s1-0.4,1-1v-2c2.2,0,4-1.8,4-4
	c0-1.1-0.5-2.2-1.4-3C18.5,11.2,19,10.2,19,9z M15,17H9v-4h6c1.1,0,2,0.9,2,2S16.1,17,15,17z M15,11H9V7h6c1.1,0,2,0.9,2,2
	S16.1,11,15,11z"/>
</svg>
